<svg xmlns="http://www.w3.org/2000/svg" width="1792" height="1792" id="cloud">
  <path d="M1194.667 974.533q0-13.066-8.4-21.466t-21.467-8.4H955.733V616.133q0-12.133-8.866-21-8.867-8.866-21-8.866h-179.2q-12.134 0-21 8.866-8.867 8.867-8.867 21v328.534H507.733q-12.133 0-21 8.866-8.866 8.867-8.866 21 0 13.067 8.4 21.467L814.8 1324.533q8.4 8.4 21.467 8.4 13.066 0 21.466-8.4l327.6-327.6q9.334-11.2 9.334-22.4zM1792 1183.6q0 148.4-105 253.4t-253.4 105H418.133q-172.666 0-295.4-122.733Q0 1296.533 0 1123.867q0-121.334 65.333-224 65.334-102.667 175.467-154-1.867-28-1.867-40.134 0-197.866 140-337.866 140-140 337.867-140 145.6 0 266.467 81.2 120.866 81.2 175.933 215.6 66.267-57.867 154.933-57.867 98.934 0 168.934 70t70 168.933q0 70.934-38.267 128.8Q1636.133 863.467 1714.067 961 1792 1058.533 1792 1183.6Z"></path>
</svg>
